<svg xmlns="http://www.w3.org/2000/svg" viewBox="0 0 80 80" enable-background="new 0 0 80 80"><g><circle fill="#2e98e3" cx="40" cy="40" r="40"/><g><path fill="#fff" d="m55.7 26.1c-1.3 0-2.5.2-3.7.7-1.6-5-6.3-8.6-11.8-8.6-5.8 0-10.7 4-12 9.4-.7-.2-1.4-.3-2.1-.3-3.8 0-6.9 3.1-6.9 6.9 0 .7.1 1.3.3 1.9-.1 0-.1 0-.2 0-2.9 0-5.3 2.4-5.3 5.3 0 2.9 2.4 5.3 5.3 5.3h36.4c5.7 0 10.3-4.6 10.3-10.3 0-5.7-4.6-10.3-10.3-10.3"/><g><path fill="#8bdcfc" d="m35 48.5c0 0-1.7 2.3-2.6 4.3-.2.4-.2.7-.2 1.2 0 .3 0 .5.1.7.3 1.2 1.4 2.1 2.7 2.1 1.3 0 2.4-.9 2.7-2.1.1-.2.1-.5.1-.7 0-.4-.1-.8-.2-1.2-.9-2-2.6-4.3-2.6-4.3"/><path fill="#8bdcfc" d="m45.5 54.9c0 0-1.4 1.9-2.2 3.6-.1.3-.2.6-.2 1 0 .2 0 .4.1.6.3 1 1.2 1.8 2.3 1.8 1.1 0 2-.7 2.3-1.8.1-.2.1-.4.1-.6 0-.3-.1-.7-.2-1-.7-1.7-2.2-3.6-2.2-3.6"/></g></g></g></svg>
