<svg xmlns="http://www.w3.org/2000/svg" viewBox="0 0 80 80" enable-background="new 0 0 80 80"><g><circle fill="#344a5f" cx="40" cy="40" r="40"/><g><circle fill="#a7a8aa" cx="22.5" cy="37.6" r="2.1"/><circle fill="#a7a8aa" cx="57.9" cy="24.9" r="1.8"/><circle fill="#a7a8aa" cx="64.9" cy="31.9" r="1.3"/><circle fill="#a7a8aa" cx="60.9" cy="40.6" r="2.4"/><circle fill="#a7a8aa" cx="16.4" cy="26.4" r="1.7"/><circle fill="#a7a8aa" cx="34.5" cy="29.4" r="1.3"/><path fill="#fff" d="m45.9 48.7c.5 0 1.1.1 1.6.2 1.6-1.7 3.8-2.7 6.2-2.7.1 0 .2 0 .3 0 3.1-7.6 1.5-16.6-4.6-22.8-2.9-2.9-6.5-4.8-10.3-5.6 6.7 7 6.7 18.1-.2 25-6.9 6.9-18 6.9-25 .2.8 3.8 2.7 7.4 5.6 10.3 5.2 5.2 12.5 7.1 19.2 5.7-.3-.8-.5-1.7-.5-2.6.1-4.3 3.5-7.7 7.7-7.7"/><path fill="#fff" d="m61.1 52.4c-.4 0-.8 0-1.1.1-.8-2.7-3.4-4.7-6.4-4.7-2.3 0-4.3 1.2-5.5 3-.7-.3-1.4-.4-2.2-.4-3.3 0-5.9 2.7-5.9 5.9 0 3.3 2.7 5.9 5.9 5.9 0 0 13.5 0 15.2 0 2.7 0 4.9-2.2 4.9-4.9.1-2.7-2.1-4.9-4.9-4.9"/></g></g></svg>
